<svg width="240" height="92" viewBox="0 0 240 92" fill="none" xmlns="http://www.w3.org/2000/svg">
<path d="M12.147 36.17V69.1646L72.8762 67.5875V37.8199L12.147 36.17Z" fill="white"/>
<path d="M27.7845 43.5825C23.1519 43.5825 20.5865 47.4104 20.5865 52.824C20.5865 57.4996 22.8081 61.8265 27.7845 61.8265C33.4797 61.8265 33.7674 55.4132 33.7674 55.4132H40.2785V48.5913H33.5364C33.5364 48.5913 32.9247 43.5825 27.7845 43.5825ZM47.7245 44.2645V61.1445H52.7594C57.7452 61.1445 59.3154 56.7983 59.3154 53.1448C59.3154 47.4658 57.2077 44.2645 51.6365 44.2645H47.7245ZM66.1702 47.6053V37.8207H72.8763V-0.000167847H0V74.8555H72.8763V67.5876H66.1702V57.5551C64.7932 63.1512 60.8587 67.5876 53.2004 67.5876H40.2785V59.385C39.1001 63.1481 35.9909 68.2317 27.7845 68.2317C21.3245 68.2317 13.1399 64.3589 13.1399 52.824C13.1399 42.5915 19.8415 37.138 27.7845 37.138C36.3902 37.138 39.2988 42.4981 40.2785 45.8845V37.8207H53.2004C59.7439 37.8207 64.5584 41.3322 66.1702 47.6053Z" fill="#003A81"/>
<path d="M161.562 50.7681C161.707 49.4944 162.008 48.2469 162.463 47.0261C162.918 45.8091 163.527 44.7348 164.293 43.8067C165.057 42.8768 165.985 42.1319 167.077 41.5683C168.169 41.0027 169.425 40.72 170.845 40.72C172.228 40.72 173.466 41.0027 174.558 41.5683C175.651 42.1319 176.578 42.8768 177.343 43.8067C178.107 44.7348 178.699 45.7985 179.118 47.0012C179.535 48.2002 179.763 49.4577 179.8 50.7681H161.562ZM180.538 42.7691C179.535 41.2942 178.234 40.1015 176.634 39.1916C175.031 38.2822 173.101 37.8263 170.845 37.8263C168.625 37.8263 166.703 38.2554 165.083 39.1087C163.463 39.9651 162.144 41.0943 161.125 42.4944C160.106 43.8964 159.351 45.4896 158.86 47.274C158.369 49.0566 158.122 50.8777 158.122 52.7338C158.122 54.7343 158.369 56.6383 158.86 58.4395C159.351 60.2426 160.106 61.8259 161.125 63.1911C162.144 64.5564 163.463 65.6289 165.083 66.4124C166.703 67.1959 168.625 67.5864 170.845 67.5864C174.412 67.5864 177.17 66.712 179.118 64.9656C181.065 63.2173 182.402 60.7434 183.131 57.5383H179.69C179.144 59.7232 178.161 61.4702 176.741 62.7819C175.322 64.0905 173.357 64.7476 170.845 64.7476C169.207 64.7476 167.805 64.4019 166.64 63.7093C165.476 63.0186 164.511 62.1454 163.747 61.0866C162.982 60.0327 162.427 58.84 162.081 57.5115C161.734 56.183 161.562 54.8994 161.562 53.6618H183.24C183.312 51.6961 183.131 49.7566 182.694 47.8464C182.257 45.9356 181.537 44.2421 180.538 42.7691ZM207.661 56.5555C207.28 57.9027 206.705 59.0954 205.942 60.133C205.177 61.17 204.23 62.0084 203.102 62.6437C201.974 63.2808 200.664 63.6003 199.17 63.6003C197.569 63.6003 196.186 63.2808 195.021 62.6437C193.856 62.0084 192.891 61.17 192.126 60.133C191.362 59.0954 190.798 57.9027 190.433 56.5555C190.069 55.2083 189.888 53.8262 189.888 52.4043C189.888 50.9512 190.06 49.5212 190.406 48.1192C190.753 46.7172 191.308 45.4716 192.072 44.3791C192.837 43.286 193.801 42.4047 194.967 41.7315C196.131 41.0576 197.532 40.72 199.17 40.72C200.809 40.72 202.201 41.0675 203.348 41.7576C204.495 42.4496 205.431 43.3608 206.16 44.4887C206.887 45.6179 207.417 46.8717 207.744 48.255C208.071 49.6402 208.235 51.0222 208.235 52.4043C208.235 53.8262 208.043 55.2083 207.661 56.5555ZM208.235 43.5053H208.126C207.798 42.7404 207.334 42.0124 206.734 41.3223C206.133 40.6303 205.451 40.0199 204.685 39.4924C203.922 38.9642 203.074 38.555 202.146 38.2635C201.218 37.9714 200.226 37.8263 199.17 37.8263C197.132 37.8263 195.321 38.2006 193.737 38.9455C192.154 39.6923 190.824 40.7119 189.751 42.0043C188.677 43.296 187.858 44.8082 187.294 46.536C186.729 48.265 186.447 50.0942 186.447 52.0238C186.447 54.0255 186.684 55.9102 187.158 57.6747C187.63 59.4423 188.385 60.9788 189.423 62.288C190.462 63.6003 191.781 64.628 193.382 65.3748C194.984 66.1209 196.914 66.494 199.17 66.494C201.246 66.494 203.056 65.9665 204.603 64.9108C206.15 63.8544 207.324 62.4531 208.126 60.706H208.235V64.5283C208.235 67.9489 207.526 70.5704 206.105 72.391C204.685 74.2115 202.374 75.1215 199.17 75.1215C198.224 75.1215 197.296 75.0199 196.386 74.8206C195.475 74.6213 194.647 74.3037 193.901 73.8646C193.155 73.4286 192.517 72.855 191.99 72.1462C191.461 71.4349 191.107 70.5517 190.925 69.4973H187.485C187.595 70.989 188.004 72.2726 188.715 73.3476C189.423 74.422 190.315 75.3027 191.389 75.9947C192.463 76.6866 193.674 77.1955 195.021 77.525C196.368 77.852 197.75 78.0151 199.17 78.0151C201.464 78.0151 203.403 77.7062 204.987 77.0871C206.57 76.4668 207.853 75.5774 208.835 74.4114C209.819 73.2455 210.537 71.8261 210.992 70.1519C211.448 68.4777 211.675 66.6036 211.675 64.5283V38.6447H208.235V43.5053ZM218.307 50.7681C218.453 49.4944 218.753 48.2469 219.207 47.0261C219.663 45.8091 220.272 44.7348 221.037 43.8067C221.801 42.8768 222.73 42.1319 223.821 41.5683C224.914 41.0027 226.169 40.72 227.589 40.72C228.973 40.72 230.211 41.0027 231.303 41.5683C232.395 42.1319 233.323 42.8768 234.087 43.8067C234.852 44.7348 235.443 45.7985 235.862 47.0012C236.279 48.2002 236.508 49.4577 236.545 50.7681H218.307ZM239.438 47.8464C239.002 45.9356 238.282 44.2421 237.282 42.7691C236.279 41.2942 234.979 40.1015 233.379 39.1916C231.776 38.2822 229.846 37.8263 227.589 37.8263C225.369 37.8263 223.448 38.2554 221.828 39.1087C220.208 39.9651 218.889 41.0943 217.869 42.4944C216.851 43.8964 216.096 45.4896 215.605 47.274C215.113 49.0566 214.866 50.8777 214.866 52.7338C214.866 54.7343 215.113 56.6383 215.605 58.4395C216.096 60.2426 216.851 61.8259 217.869 63.1911C218.889 64.5564 220.208 65.6289 221.828 66.4124C223.448 67.1959 225.369 67.5864 227.589 67.5864C231.156 67.5864 233.914 66.712 235.862 64.9656C237.808 63.2173 239.147 60.7434 239.875 57.5383H236.437C235.889 59.7232 234.906 61.4702 233.486 62.7819C232.066 64.0905 230.101 64.7476 227.589 64.7476C225.952 64.7476 224.55 64.4019 223.385 63.7093C222.221 63.0186 221.256 62.1454 220.491 61.0866C219.726 60.0327 219.171 58.84 218.825 57.5115C218.479 56.183 218.307 54.8994 218.307 53.6618H239.984C240.057 51.6961 239.875 49.7566 239.438 47.8464ZM150.926 66.821H154.366V27.833H150.926V66.821ZM142.689 66.821H146.129V27.833H142.689V66.821ZM134.865 57.1297C134.446 58.5672 133.827 59.8521 133.007 60.9788C132.189 62.1086 131.16 63.0186 129.922 63.7093C128.684 64.4019 127.247 64.7476 125.608 64.7476C123.971 64.7476 122.531 64.4019 121.296 63.7093C120.056 63.0186 119.028 62.1086 118.21 60.9788C117.391 59.8521 116.772 58.5672 116.353 57.1297C115.934 55.6922 115.725 54.2255 115.725 52.7338C115.725 51.2421 115.934 49.7753 116.353 48.3385C116.772 46.9003 117.391 45.6179 118.21 44.4887C119.028 43.3608 120.056 42.4496 121.296 41.7576C122.531 41.0675 123.971 40.72 125.608 40.72C127.247 40.72 128.684 41.0675 129.922 41.7576C131.16 42.4496 132.189 43.3608 133.007 44.4887C133.827 45.6179 134.446 46.9003 134.865 48.3385C135.282 49.7753 135.493 51.2421 135.493 52.7338C135.493 54.2255 135.282 55.6922 134.865 57.1297ZM135.493 42.2503C134.363 40.9031 132.972 39.8287 131.315 39.0284C129.657 38.2293 127.756 37.8263 125.608 37.8263C123.461 37.8263 121.559 38.2293 119.902 39.0284C118.245 39.8287 116.852 40.9031 115.725 42.2503C114.597 43.5956 113.741 45.1701 113.159 46.9732C112.576 48.7738 112.285 50.6946 112.285 52.7338C112.285 54.7729 112.576 56.6919 113.159 58.4943C113.741 60.2974 114.597 61.872 115.725 63.2173C116.852 64.5645 118.245 65.6289 119.902 66.4124C121.559 67.1959 123.461 67.5864 125.608 67.5864C127.756 67.5864 129.657 67.1959 131.315 66.4124C132.972 65.6289 134.363 64.5645 135.493 63.2173C136.621 61.872 137.476 60.2974 138.059 58.4943C138.641 56.6919 138.932 54.7729 138.932 52.7338C138.932 50.6946 138.641 48.7738 138.059 46.9732C137.476 45.1701 136.621 43.5956 135.493 42.2503ZM104.78 59.9418C104.306 60.924 103.705 61.7704 102.977 62.4798C102.249 63.1911 101.412 63.7448 100.466 64.1453C99.5178 64.5464 98.5182 64.7476 97.4625 64.7476C95.8245 64.7476 94.3857 64.4019 93.1488 63.7093C91.9112 63.0186 90.8835 62.1086 90.0639 60.9788C89.2449 59.8521 88.6251 58.5672 88.2078 57.1297C87.7881 55.6922 87.5788 54.2255 87.5788 52.7338C87.5788 51.2421 87.7881 49.7753 88.2078 48.3385C88.6251 46.9003 89.2449 45.6179 90.0639 44.4887C90.8835 43.3608 91.9112 42.4496 93.1488 41.7576C94.3857 41.0675 95.8245 40.72 97.4625 40.72C99.7558 40.72 101.538 41.3223 102.814 42.5231C104.088 43.7233 104.961 45.3819 105.434 47.492H108.876C108.474 44.2527 107.228 41.8305 105.135 40.2292C103.041 38.6279 100.484 37.8263 97.4625 37.8263C95.3156 37.8263 93.4116 38.2293 91.7567 39.0284C90.1 39.8287 88.7061 40.9031 87.5788 42.2503C86.4508 43.5956 85.5951 45.1701 85.0127 46.9732C84.4304 48.7738 84.1401 50.6946 84.1401 52.7338C84.1401 54.7729 84.4304 56.6919 85.0127 58.4943C85.5951 60.2974 86.4508 61.872 87.5788 63.2173C88.7061 64.5645 90.1 65.6289 91.7567 66.4124C93.4116 67.1959 95.3156 67.5864 97.4625 67.5864C100.666 67.5864 103.287 66.6304 105.326 64.7177C107.364 62.8081 108.62 60.143 109.094 56.7199H105.654C105.544 57.8865 105.252 58.9584 104.78 59.9418Z" fill="#76797C"/>
<path d="M86.8496 88.7137C87.1155 88.9528 87.3279 89.1029 87.4855 89.1646C87.6437 89.225 87.8137 89.2555 87.9956 89.2555C88.378 89.2555 88.6601 89.0936 88.8433 88.7697C89.0264 88.4452 89.1179 88.0323 89.1179 87.5309C89.1179 87.0632 89.037 86.6926 88.875 86.4185C88.7131 86.1451 88.4621 86.0081 88.122 86.0081C87.9059 86.0081 87.6923 86.0673 87.4799 86.1856C87.2675 86.3039 87.0576 86.4827 86.8496 86.7218V88.7137ZM86.0654 89.793V83.4607H86.8496V86.2317C87.0103 85.9284 87.2102 85.7017 87.4487 85.5509C87.6873 85.3996 87.9657 85.3242 88.2852 85.3242C88.8146 85.3242 89.2244 85.5204 89.5147 85.9134C89.8049 86.3064 89.95 86.819 89.95 87.4512C89.95 88.1332 89.7856 88.7025 89.4574 89.1596C89.1291 89.6161 88.6819 89.8447 88.1152 89.8447C87.9489 89.8447 87.7907 89.8248 87.6406 89.7849C87.4898 89.7451 87.3559 89.6878 87.2388 89.6137C87.1218 89.5395 86.9922 89.4206 86.8496 89.2555L86.7499 89.793H86.0654Z" fill="#76797C"/>
<path d="M94.7128 89.7451V88.9329C94.511 89.225 94.2787 89.4499 94.0159 89.6074C93.7537 89.7656 93.4802 89.8447 93.1962 89.8447C92.8325 89.8447 92.536 89.7289 92.3068 89.4966C92.0776 89.2642 91.9624 88.941 91.9624 88.5274V85.4232H92.7465V88.2727C92.7465 88.5723 92.7733 88.7703 92.8263 88.8656C92.8792 88.9609 92.9533 89.035 93.0492 89.088C93.1445 89.1415 93.2479 89.1677 93.3594 89.1677C93.5506 89.1677 93.758 89.1085 93.9822 88.989C94.2065 88.87 94.45 88.6153 94.7128 88.2254V85.4232H95.4963V89.7451H94.7128Z" fill="#76797C"/>
<path d="M97.7246 89.5937V88.8737C98.2366 89.1285 98.6825 89.2555 99.0612 89.2555C99.2842 89.2555 99.471 89.1945 99.6205 89.0724C99.7706 88.9503 99.8454 88.7977 99.8454 88.6146C99.8454 88.5 99.8086 88.3879 99.7339 88.2796C99.6591 88.1706 99.4885 88.0603 99.2194 87.9488L98.761 87.7533C98.4079 87.6075 98.15 87.4375 97.9874 87.2438C97.8255 87.0526 97.7445 86.8171 97.7445 86.5387C97.7445 86.1906 97.871 85.901 98.1238 85.6699C98.3761 85.4394 98.7504 85.3242 99.2456 85.3242C99.4878 85.3242 99.7868 85.3566 100.144 85.4232L100.307 85.455V86.1115C99.8672 85.9788 99.5171 85.9128 99.2562 85.9128C99.0027 85.9128 98.8139 85.9676 98.6881 86.0766C98.5629 86.185 98.5007 86.3133 98.5007 86.4628C98.5007 86.5792 98.543 86.6845 98.6283 86.7773C98.7106 86.8732 98.8594 86.9672 99.0743 87.0607L99.4536 87.2195C99.9612 87.4344 100.284 87.6474 100.423 87.8573C100.56 88.0672 100.629 88.2951 100.629 88.5424C100.629 88.7784 100.565 88.9977 100.436 89.1995C100.308 89.4013 100.118 89.5588 99.8672 89.6734C99.6168 89.788 99.3377 89.8447 99.0301 89.8447C98.6719 89.8447 98.2366 89.7613 97.7246 89.5937Z" fill="#76797C"/>
<path d="M102.854 85.4233H103.638V89.7451H102.854V85.4233ZM102.854 83.855H103.638V84.6391H102.854V83.855Z" fill="#76797C"/>
<path d="M106.025 89.7451V85.4233H106.809V86.2311C107.008 85.9421 107.239 85.7185 107.504 85.5603C107.767 85.4021 108.041 85.3236 108.325 85.3236C108.691 85.3236 108.988 85.4401 109.217 85.6724C109.445 85.9047 109.559 86.2267 109.559 86.6384V89.7451H108.775V86.8925C108.775 86.5923 108.749 86.3949 108.696 86.299C108.642 86.2031 108.568 86.1296 108.473 86.0779C108.377 86.0262 108.275 86 108.166 86C107.972 86 107.763 86.0598 107.539 86.1794C107.315 86.299 107.072 86.5537 106.809 86.9442V89.7451H106.025Z" fill="#76797C"/>
<path d="M112.391 87.1191H114.353C114.353 86.6868 114.267 86.3773 114.093 86.1917C113.92 86.0061 113.699 85.9127 113.428 85.9127C113.12 85.9127 112.879 86.0136 112.705 86.2135C112.531 86.4134 112.428 86.7161 112.391 87.1191ZM115.117 89.606C114.584 89.7655 114.128 89.8452 113.749 89.8452C113.068 89.8452 112.533 89.6191 112.142 89.1663C111.751 88.7142 111.556 88.1798 111.556 87.5644C111.556 87.1583 111.642 86.7722 111.814 86.4059C111.987 86.0403 112.212 85.7682 112.491 85.5907C112.769 85.4131 113.097 85.3241 113.474 85.3241C113.98 85.3241 114.384 85.5028 114.686 85.861C114.987 86.2197 115.138 86.7553 115.138 87.4691L115.134 87.7077H112.356C112.4 88.0901 112.482 88.3841 112.608 88.5915C112.732 88.7982 112.897 88.9595 113.104 89.0748C113.311 89.19 113.573 89.2479 113.893 89.2479C114.055 89.2479 114.217 89.2342 114.377 89.2062C114.538 89.1788 114.785 89.1047 115.117 88.9851V89.606Z" fill="#76797C"/>
<path d="M117.094 89.5937V88.8737C117.606 89.1285 118.052 89.2555 118.432 89.2555C118.655 89.2555 118.842 89.1945 118.991 89.0724C119.14 88.9503 119.216 88.7977 119.216 88.6146C119.216 88.5 119.178 88.3879 119.104 88.2796C119.03 88.1706 118.858 88.0603 118.59 87.9488L118.131 87.7533C117.778 87.6075 117.52 87.4375 117.358 87.2438C117.195 87.0526 117.114 86.8171 117.114 86.5387C117.114 86.1906 117.241 85.901 117.494 85.6699C117.747 85.4394 118.12 85.3242 118.615 85.3242C118.858 85.3242 119.157 85.3566 119.514 85.4232L119.677 85.455V86.1115C119.238 85.9788 118.888 85.9128 118.626 85.9128C118.373 85.9128 118.184 85.9676 118.059 86.0766C117.933 86.185 117.871 86.3133 117.871 86.4628C117.871 86.5792 117.913 86.6845 117.998 86.7773C118.08 86.8732 118.229 86.9672 118.445 87.0607L118.823 87.2195C119.332 87.4344 119.654 87.6474 119.793 87.8573C119.931 88.0672 120 88.2951 120 88.5424C120 88.7784 119.936 88.9977 119.806 89.1995C119.678 89.4013 119.489 89.5588 119.238 89.6734C118.987 89.788 118.708 89.8447 118.4 89.8447C118.042 89.8447 117.606 89.7613 117.094 89.5937Z" fill="#76797C"/>
<path d="M122.064 89.5937V88.8737C122.576 89.1285 123.022 89.2555 123.402 89.2555C123.625 89.2555 123.811 89.1945 123.961 89.0724C124.11 88.9503 124.186 88.7977 124.186 88.6146C124.186 88.5 124.148 88.3879 124.074 88.2796C124 88.1706 123.828 88.0603 123.56 87.9488L123.101 87.7533C122.748 87.6075 122.49 87.4375 122.328 87.2438C122.165 87.0526 122.084 86.8171 122.084 86.5387C122.084 86.1906 122.211 85.901 122.464 85.6699C122.717 85.4394 123.09 85.3242 123.585 85.3242C123.828 85.3242 124.127 85.3566 124.484 85.4232L124.647 85.455V86.1115C124.208 85.9788 123.858 85.9128 123.596 85.9128C123.343 85.9128 123.154 85.9676 123.029 86.0766C122.903 86.185 122.841 86.3133 122.841 86.4628C122.841 86.5792 122.883 86.6845 122.968 86.7773C123.05 86.8732 123.199 86.9672 123.415 87.0607L123.793 87.2195C124.302 87.4344 124.624 87.6474 124.763 87.8573C124.901 88.0672 124.97 88.2951 124.97 88.5424C124.97 88.7784 124.906 88.9977 124.776 89.1995C124.648 89.4013 124.459 89.5588 124.208 89.6734C123.957 89.788 123.678 89.8447 123.37 89.8447C123.012 89.8447 122.576 89.7613 122.064 89.5937Z" fill="#76797C"/>
<path d="M135.908 89.7451C135.666 89.8111 135.456 89.8447 135.279 89.8447C134.891 89.8447 134.584 89.732 134.356 89.5084C134.128 89.2842 134.013 88.9653 134.013 88.5511V86.0124H133.472V85.4232H134.013V84.6391L134.797 84.5637V85.4232H135.928V86.0124H134.797V88.4085C134.797 88.7106 134.856 88.9273 134.972 89.0581C135.089 89.1895 135.274 89.2555 135.53 89.2555C135.633 89.2555 135.76 89.2387 135.908 89.2038V89.7451Z" fill="#76797C"/>
<path d="M138.338 87.1191H140.3C140.3 86.6868 140.214 86.3773 140.04 86.1917C139.867 86.0061 139.646 85.9127 139.375 85.9127C139.066 85.9127 138.825 86.0136 138.652 86.2135C138.478 86.4134 138.374 86.7161 138.338 87.1191ZM141.064 89.606C140.531 89.7655 140.075 89.8452 139.696 89.8452C139.015 89.8452 138.479 89.6191 138.089 89.1663C137.698 88.7142 137.502 88.1798 137.502 87.5644C137.502 87.1583 137.589 86.7722 137.761 86.4059C137.933 86.0403 138.159 85.7682 138.437 85.5907C138.716 85.4131 139.044 85.3241 139.421 85.3241C139.927 85.3241 140.331 85.5028 140.633 85.861C140.934 86.2197 141.084 86.7553 141.084 87.4691L141.081 87.7077H138.302C138.346 88.0901 138.429 88.3841 138.554 88.5915C138.678 88.7982 138.844 88.9595 139.051 89.0748C139.258 89.19 139.52 89.2479 139.84 89.2479C140.002 89.2479 140.164 89.2342 140.324 89.2062C140.485 89.1788 140.732 89.1047 141.064 88.9851V89.606Z" fill="#76797C"/>
<path d="M146.174 89.6137C145.671 89.7675 145.237 89.8447 144.871 89.8447C144.49 89.8447 144.14 89.7401 143.822 89.5321C143.504 89.3234 143.263 89.0494 143.101 88.7093C142.94 88.3692 142.859 87.9862 142.859 87.5583C142.859 86.9212 143.034 86.3886 143.384 85.9632C143.733 85.5366 144.274 85.3236 145.006 85.3236C145.342 85.3236 145.716 85.3703 146.126 85.4631V86.1196C145.688 85.99 145.332 85.9246 145.056 85.9246C144.621 85.9246 144.293 86.0884 144.073 86.4167C143.852 86.7449 143.743 87.1335 143.743 87.582C143.743 88.0684 143.867 88.4608 144.114 88.7616C144.362 89.0618 144.684 89.2113 145.08 89.2113C145.434 89.2113 145.799 89.1204 146.174 88.9373V89.6137Z" fill="#76797C"/>
<path d="M148.191 89.7451V83.4607H148.975V86.2311C149.174 85.9421 149.406 85.7185 149.67 85.5603C149.934 85.4021 150.207 85.3236 150.491 85.3236C150.858 85.3236 151.155 85.4401 151.383 85.6724C151.611 85.9047 151.725 86.2267 151.725 86.6384V89.7451H150.941V86.8925C150.941 86.5923 150.915 86.3949 150.861 86.299C150.808 86.2031 150.734 86.1296 150.639 86.0779C150.543 86.0262 150.441 86 150.332 86C150.139 86 149.929 86.0598 149.706 86.1794C149.481 86.299 149.238 86.5537 148.975 86.9442V89.7451H148.191Z" fill="#76797C"/>
<path d="M154.064 89.7451V85.4233H154.848V86.2311C155.047 85.9421 155.279 85.7185 155.543 85.5603C155.807 85.4021 156.08 85.3236 156.364 85.3236C156.731 85.3236 157.028 85.4401 157.256 85.6724C157.484 85.9047 157.598 86.2267 157.598 86.6384V89.7451H156.814V86.8925C156.814 86.5923 156.788 86.3949 156.734 86.299C156.681 86.2031 156.607 86.1296 156.512 86.0779C156.416 86.0262 156.314 86 156.206 86C156.012 86 155.803 86.0598 155.579 86.1794C155.354 86.299 155.111 86.5537 154.848 86.9442V89.7451H154.064Z" fill="#76797C"/>
<path d="M161.657 89.2555C162.048 89.2555 162.351 89.1104 162.567 88.8195C162.783 88.5287 162.89 88.1164 162.89 87.582C162.89 87.0457 162.782 86.6334 162.565 86.345C162.348 86.0567 162.045 85.9128 161.657 85.9128C161.268 85.9128 160.966 86.0567 160.751 86.345C160.535 86.6334 160.427 87.0457 160.427 87.582C160.427 88.1164 160.535 88.5287 160.751 88.8195C160.966 89.1104 161.268 89.2555 161.657 89.2555ZM161.659 89.8447C161.247 89.8447 160.89 89.7606 160.585 89.5919C160.281 89.4237 160.04 89.1577 159.862 88.7953C159.684 88.4328 159.595 88.0279 159.595 87.582C159.595 87.1628 159.676 86.7729 159.838 86.4135C160 86.0529 160.236 85.782 160.545 85.5989C160.855 85.4151 161.226 85.3242 161.659 85.3242C162.07 85.3242 162.429 85.4071 162.734 85.5746C163.04 85.7415 163.281 86.0075 163.458 86.3712C163.634 86.7349 163.722 87.1391 163.722 87.582C163.722 88.0068 163.64 88.3998 163.475 88.7591C163.311 89.1191 163.074 89.3901 162.768 89.5719C162.462 89.7538 162.092 89.8447 161.659 89.8447Z" fill="#76797C"/>
<path d="M165.759 83.4607H166.543V89.7451H165.759V83.4607Z" fill="#76797C"/>
<path d="M170.649 89.2555C171.04 89.2555 171.344 89.1104 171.559 88.8195C171.775 88.5287 171.882 88.1164 171.882 87.582C171.882 87.0457 171.775 86.6334 171.557 86.345C171.34 86.0567 171.037 85.9128 170.649 85.9128C170.26 85.9128 169.958 86.0567 169.743 86.345C169.527 86.6334 169.419 87.0457 169.419 87.582C169.419 88.1164 169.527 88.5287 169.743 88.8195C169.958 89.1104 170.26 89.2555 170.649 89.2555ZM170.651 89.8447C170.239 89.8447 169.882 89.7606 169.577 89.5919C169.273 89.4237 169.032 89.1577 168.854 88.7953C168.676 88.4328 168.587 88.0279 168.587 87.582C168.587 87.1628 168.668 86.7729 168.83 86.4135C168.992 86.0529 169.228 85.782 169.537 85.5989C169.847 85.4151 170.218 85.3242 170.651 85.3242C171.063 85.3242 171.421 85.4071 171.726 85.5746C172.032 85.7415 172.273 86.0075 172.45 86.3712C172.626 86.7349 172.714 87.1391 172.714 87.582C172.714 88.0068 172.632 88.3998 172.467 88.7591C172.303 89.1191 172.067 89.3901 171.76 89.5719C171.454 89.7538 171.084 89.8447 170.651 89.8447Z" fill="#76797C"/>
<path d="M177.557 88.2479V86.4504C177.382 86.2697 177.199 86.1352 177.009 86.0461C176.819 85.9571 176.62 85.9129 176.412 85.9129C176.06 85.9129 175.776 86.053 175.562 86.3333C175.347 86.6135 175.24 87.019 175.24 87.5509C175.24 87.9676 175.319 88.307 175.479 88.5692C175.638 88.8308 175.897 88.9616 176.255 88.9616C176.487 88.9616 176.711 88.9018 176.928 88.7816C177.145 88.6627 177.355 88.4845 177.557 88.2479ZM174.767 91.182L174.859 90.5013C175.317 90.7168 175.771 90.8239 176.22 90.8239C176.721 90.8239 177.07 90.6975 177.265 90.4433C177.459 90.1898 177.557 89.8485 177.557 89.4188V88.738C177.441 88.9772 177.261 89.1883 177.018 89.3714C176.774 89.5546 176.477 89.6455 176.125 89.6455C175.527 89.6455 175.092 89.4325 174.819 89.0065C174.545 88.5804 174.408 88.0965 174.408 87.5546C174.408 87.143 174.489 86.758 174.65 86.4012C174.811 86.0443 175.034 85.7752 175.319 85.5946C175.605 85.414 175.931 85.3243 176.298 85.3243C176.462 85.3243 176.614 85.3423 176.754 85.3797C176.895 85.4165 177.026 85.4725 177.149 85.5466C177.27 85.6208 177.407 85.7435 177.557 85.9129V85.4233H178.341V88.5674C178.341 89.4823 178.264 90.1089 178.11 90.4458C177.956 90.7822 177.715 91.0282 177.388 91.182C177.06 91.3359 176.67 91.4131 176.219 91.4131C176.071 91.4131 175.913 91.4044 175.744 91.3888C175.574 91.3732 175.422 91.352 175.29 91.3271C175.157 91.3016 174.983 91.2536 174.767 91.182Z" fill="#76797C"/>
<path d="M180.901 91.3174L181.602 89.746L179.93 85.4229H180.779L182.014 88.6753L183.335 85.4229H184.073L181.718 91.3174H180.901Z" fill="#76797C"/>
<path d="M192.51 89.7451V83.4607H193.294V86.2311C193.493 85.9421 193.725 85.7185 193.989 85.5603C194.253 85.4021 194.526 85.3236 194.81 85.3236C195.177 85.3236 195.474 85.4401 195.702 85.6724C195.93 85.9047 196.044 86.2267 196.044 86.6384V89.7451H195.26V86.8925C195.26 86.5923 195.234 86.3949 195.18 86.299C195.127 86.2031 195.053 86.1296 194.958 86.0779C194.862 86.0262 194.76 86 194.652 86C194.458 86 194.249 86.0598 194.025 86.1794C193.8 86.299 193.557 86.5537 193.294 86.9442V89.7451H192.51Z" fill="#76797C"/>
<path d="M198.876 87.1191H200.838C200.838 86.6868 200.752 86.3773 200.578 86.1917C200.405 86.0061 200.184 85.9127 199.913 85.9127C199.604 85.9127 199.363 86.0136 199.19 86.2135C199.017 86.4134 198.912 86.7161 198.876 87.1191ZM201.603 89.606C201.069 89.7655 200.613 89.8452 200.234 89.8452C199.553 89.8452 199.017 89.6191 198.627 89.1663C198.236 88.7142 198.041 88.1798 198.041 87.5644C198.041 87.1583 198.127 86.7722 198.299 86.4059C198.472 86.0403 198.697 85.7682 198.975 85.5907C199.254 85.4131 199.582 85.3241 199.959 85.3241C200.465 85.3241 200.869 85.5028 201.171 85.861C201.472 86.2197 201.622 86.7553 201.622 87.4691L201.619 87.7077H198.84C198.884 88.0901 198.967 88.3841 199.092 88.5915C199.216 88.7982 199.382 88.9595 199.59 89.0748C199.796 89.19 200.059 89.2479 200.378 89.2479C200.54 89.2479 200.702 89.2342 200.862 89.2062C201.023 89.1788 201.271 89.1047 201.603 88.9851V89.606Z" fill="#76797C"/>
<path d="M205.888 88.7707V87.6521L205.632 87.644C205.212 87.644 204.86 87.7237 204.576 87.8832C204.292 88.0426 204.149 88.2587 204.149 88.5315C204.149 88.7202 204.219 88.8797 204.358 89.0099C204.498 89.1394 204.661 89.2042 204.848 89.2042C205.016 89.2042 205.187 89.1681 205.36 89.0952C205.534 89.0217 205.709 88.9133 205.888 88.7707ZM206.004 89.1967C205.767 89.411 205.534 89.5729 205.304 89.6819C205.073 89.7909 204.849 89.8457 204.628 89.8457C204.319 89.8457 204.031 89.7442 203.765 89.5424C203.498 89.3412 203.365 89.0466 203.365 88.6592C203.365 88.2351 203.551 87.8838 203.922 87.6066C204.293 87.3295 204.887 87.1906 205.702 87.1906H205.888V86.668C205.888 86.46 205.86 86.3093 205.803 86.2146C205.746 86.1199 205.658 86.0464 205.538 85.9929C205.418 85.9399 205.269 85.9131 205.091 85.9131C204.679 85.9131 204.228 86.0402 203.739 86.2949V85.6466C204.274 85.4317 204.778 85.3246 205.25 85.3246C205.508 85.3246 205.745 85.3644 205.961 85.4454C206.178 85.527 206.35 85.654 206.479 85.8278C206.607 86.0022 206.672 86.2819 206.672 86.6668V88.6268C206.672 88.8442 206.69 88.9912 206.724 89.0672C206.758 89.1431 206.807 89.1998 206.869 89.2403C206.932 89.2795 207.004 89.3001 207.086 89.3001C207.121 89.3001 207.171 89.2945 207.237 89.2839L207.293 89.718C207.116 89.8027 206.919 89.8457 206.705 89.8457C206.561 89.8457 206.422 89.7984 206.29 89.7062C206.158 89.6134 206.062 89.4434 206.004 89.1967Z" fill="#76797C"/>
<path d="M209.055 83.4607H209.839V89.7451H209.055V83.4607Z" fill="#76797C"/>
<path d="M214.153 89.7451C213.911 89.8111 213.701 89.8447 213.524 89.8447C213.136 89.8447 212.829 89.732 212.601 89.5084C212.373 89.2842 212.258 88.9653 212.258 88.5511V86.0124H211.717V85.4232H212.258V84.6391L213.042 84.5637V85.4232H214.173V86.0124H213.042V88.4085C213.042 88.7106 213.101 88.9273 213.217 89.0581C213.335 89.1895 213.52 89.2555 213.775 89.2555C213.878 89.2555 214.005 89.2387 214.153 89.2038V89.7451Z" fill="#76797C"/>
<path d="M216.09 89.7451V83.4607H216.874V86.2311C217.073 85.9421 217.305 85.7185 217.569 85.5603C217.833 85.4021 218.106 85.3236 218.39 85.3236C218.756 85.3236 219.054 85.4401 219.282 85.6724C219.51 85.9047 219.624 86.2267 219.624 86.6384V89.7451H218.84V86.8925C218.84 86.5923 218.814 86.3949 218.76 86.299C218.707 86.2031 218.633 86.1296 218.538 86.0779C218.442 86.0262 218.34 86 218.231 86C218.038 86 217.828 86.0598 217.605 86.1794C217.38 86.299 217.137 86.5537 216.874 86.9442V89.7451H216.09Z" fill="#76797C"/>
<path d="M224.936 89.6137C224.433 89.7675 224 89.8447 223.633 89.8447C223.252 89.8447 222.902 89.7401 222.584 89.5321C222.266 89.3234 222.025 89.0494 221.863 88.7093C221.702 88.3692 221.621 87.9862 221.621 87.5583C221.621 86.9212 221.796 86.3886 222.146 85.9632C222.496 85.5366 223.036 85.3236 223.768 85.3236C224.104 85.3236 224.478 85.3703 224.888 85.4631V86.1196C224.451 85.99 224.094 85.9246 223.818 85.9246C223.383 85.9246 223.055 86.0884 222.835 86.4167C222.615 86.7449 222.505 87.1335 222.505 87.582C222.505 88.0684 222.629 88.4608 222.876 88.7616C223.125 89.0618 223.446 89.2113 223.842 89.2113C224.197 89.2113 224.561 89.1204 224.936 88.9373V89.6137Z" fill="#76797C"/>
<path d="M229.102 88.7707V87.6521L228.846 87.644C228.426 87.644 228.074 87.7237 227.79 87.8832C227.506 88.0426 227.363 88.2587 227.363 88.5315C227.363 88.7202 227.433 88.8797 227.572 89.0099C227.712 89.1394 227.875 89.2042 228.062 89.2042C228.23 89.2042 228.401 89.1681 228.574 89.0952C228.748 89.0217 228.923 88.9133 229.102 88.7707ZM229.218 89.1967C228.981 89.411 228.748 89.5729 228.518 89.6819C228.287 89.7909 228.062 89.8457 227.842 89.8457C227.532 89.8457 227.245 89.7442 226.979 89.5424C226.712 89.3412 226.579 89.0466 226.579 88.6592C226.579 88.2351 226.764 87.8838 227.136 87.6066C227.507 87.3295 228.101 87.1906 228.916 87.1906H229.102V86.668C229.102 86.46 229.074 86.3093 229.017 86.2146C228.96 86.1199 228.872 86.0464 228.752 85.9929C228.632 85.9399 228.483 85.9131 228.305 85.9131C227.892 85.9131 227.441 86.0402 226.953 86.2949V85.6466C227.488 85.4317 227.991 85.3246 228.464 85.3246C228.722 85.3246 228.959 85.3644 229.175 85.4454C229.392 85.527 229.563 85.654 229.692 85.8278C229.821 86.0022 229.886 86.2819 229.886 86.6668V88.6268C229.886 88.8442 229.904 88.9912 229.938 89.0672C229.972 89.1431 230.021 89.1998 230.083 89.2403C230.146 89.2795 230.217 89.3001 230.3 89.3001C230.335 89.3001 230.385 89.2945 230.451 89.2839L230.507 89.718C230.33 89.8027 230.133 89.8457 229.918 89.8457C229.775 89.8457 229.636 89.7984 229.504 89.7062C229.372 89.6134 229.276 89.4434 229.218 89.1967Z" fill="#76797C"/>
<path d="M232.269 89.7451V85.4233H233.053V86.2311C233.201 85.9421 233.395 85.7185 233.632 85.5603C233.869 85.4021 234.128 85.3236 234.407 85.3236C234.486 85.3236 234.569 85.3305 234.657 85.3436V86.0754C234.524 86.0305 234.405 86.0081 234.299 86.0081C234.052 86.0081 233.824 86.0816 233.616 86.2292C233.408 86.3768 233.22 86.5973 233.053 86.8925V89.7451H232.269Z" fill="#76797C"/>
<path d="M236.912 87.1191H238.874C238.874 86.6868 238.788 86.3773 238.614 86.1917C238.441 86.0061 238.22 85.9127 237.949 85.9127C237.64 85.9127 237.399 86.0136 237.226 86.2135C237.052 86.4134 236.948 86.7161 236.912 87.1191ZM239.638 89.606C239.105 89.7655 238.649 89.8452 238.27 89.8452C237.589 89.8452 237.053 89.6191 236.663 89.1663C236.272 88.7142 236.076 88.1798 236.076 87.5644C236.076 87.1583 236.163 86.7722 236.335 86.4059C236.507 86.0403 236.733 85.7682 237.011 85.5907C237.29 85.4131 237.618 85.3241 237.995 85.3241C238.501 85.3241 238.905 85.5028 239.207 85.861C239.508 86.2197 239.658 86.7553 239.658 87.4691L239.655 87.7077H236.876C236.92 88.0901 237.003 88.3841 237.128 88.5915C237.252 88.7982 237.418 88.9595 237.625 89.0748C237.832 89.19 238.094 89.2479 238.414 89.2479C238.576 89.2479 238.738 89.2342 238.898 89.2062C239.059 89.1788 239.306 89.1047 239.638 88.9851V89.606Z" fill="#76797C"/>
<path d="M130.695 87.4713C130.695 87.9627 130.294 88.3638 129.8 88.3638C129.307 88.3638 128.905 87.9627 128.905 87.4713C128.905 86.9749 129.307 86.5731 129.8 86.5731C130.294 86.5731 130.695 86.9749 130.695 87.4713Z" fill="#76797C"/>
<path d="M189.187 87.4713C189.187 87.9627 188.788 88.3638 188.294 88.3638C187.8 88.3638 187.399 87.9627 187.399 87.4713C187.399 86.9749 187.8 86.5731 188.294 86.5731C188.788 86.5731 189.187 86.9749 189.187 87.4713Z" fill="#76797C"/>
</svg>
